<?xml version="1.0" encoding="utf-8"?>
<!-- Generator: Adobe Illustrator 22.1.0, SVG Export Plug-In . SVG Version: 6.00 Build 0)  -->
<svg version="1.1" id="Fill_Outline" xmlns="http://www.w3.org/2000/svg" xmlns:xlink="http://www.w3.org/1999/xlink" x="0px"
	 y="0px" viewBox="0 0 64 64" enable-background="new 0 0 64 64" xml:space="preserve">
<g id="A.I_operator_2_">
	<g>
		<path fill="#3E444C" d="M57,13H33v6c0,1.105-0.895,2-2,2h-3v4l-4-4h-9c-1.105,0-2-0.895-2-2v-6H7c-1.105,0-2,0.895-2,2v40h54V15
			C59,13.895,58.105,13,57,13z"/>
		<path d="M59,56H5c-0.553,0-1-0.447-1-1V15c0-1.654,1.346-3,3-3h6c0.553,0,1,0.447,1,1v6c0,0.552,0.448,1,1,1h9
			c0.266,0,0.52,0.105,0.707,0.293L27,22.586V21c0-0.553,0.447-1,1-1h3c0.552,0,1-0.448,1-1v-6c0-0.553,0.447-1,1-1h24
			c1.654,0,3,1.346,3,3v40C60,55.553,59.553,56,59,56z M6,54h52V15c0-0.552-0.448-1-1-1H34v5c0,1.654-1.346,3-3,3h-2v3
			c0,0.404-0.243,0.77-0.617,0.924c-0.373,0.156-0.803,0.069-1.09-0.217L23.586,22H15c-1.654,0-3-1.346-3-3v-5H7
			c-0.552,0-1,0.448-1,1V54z"/>
	</g>
	<g>
		<path fill="#FFFFFF" d="M33,17v2c0,1.105-0.895,2-2,2h-3v4l-4-4h-9c-1.105,0-2-0.895-2-2v-2H9v34h46V17H33z"/>
		<path d="M55,52H9c-0.553,0-1-0.447-1-1V17c0-0.553,0.447-1,1-1h4c0.553,0,1,0.447,1,1v2c0,0.552,0.448,1,1,1h9
			c0.266,0,0.52,0.105,0.707,0.293L27,22.586V21c0-0.553,0.447-1,1-1h3c0.552,0,1-0.448,1-1v-2c0-0.553,0.447-1,1-1h22
			c0.553,0,1,0.447,1,1v34C56,51.553,55.553,52,55,52z M10,50h44V18H34v1c0,1.654-1.346,3-3,3h-2v3c0,0.404-0.243,0.77-0.617,0.924
			c-0.373,0.156-0.803,0.069-1.09-0.217L23.586,22H15c-1.654,0-3-1.346-3-3v-1h-2V50z"/>
	</g>
	<g>
		<path fill="#3E444C" d="M59,59H5c-1.105,0-2-0.895-2-2v-2h58v2C61,58.105,60.105,59,59,59z"/>
		<path d="M59,60H5c-1.654,0-3-1.346-3-3v-2c0-0.553,0.447-1,1-1h58c0.553,0,1,0.447,1,1v2C62,58.654,60.654,60,59,60z M4,56v1
			c0,0.552,0.448,1,1,1h54c0.552,0,1-0.448,1-1v-1H4z"/>
	</g>
	<g>
		<rect x="28" y="55" fill="#FFFFFF" width="8" height="4"/>
		<path d="M36,60h-8c-0.553,0-1-0.447-1-1v-4c0-0.553,0.447-1,1-1h8c0.553,0,1,0.447,1,1v4C37,59.553,36.553,60,36,60z M29,58h6v-2
			h-6V58z"/>
	</g>
	<rect x="12" y="46" width="2" height="2"/>
	<rect x="50" y="20" width="2" height="2"/>
	<rect x="50" y="46" width="2" height="2"/>
	<g>
		<rect x="21" y="29" fill="#ED1C24" width="22" height="18"/>
		<path d="M43,48H21c-0.553,0-1-0.447-1-1V29c0-0.553,0.447-1,1-1h22c0.553,0,1,0.447,1,1v18C44,47.553,43.553,48,43,48z M22,46h20
			V30H22V46z"/>
	</g>
	<g>
		<circle fill="#FFFFFF" cx="28" cy="36" r="3"/>
		<path d="M28,40c-2.206,0-4-1.794-4-4s1.794-4,4-4s4,1.794,4,4S30.206,40,28,40z M28,34c-1.103,0-2,0.897-2,2s0.897,2,2,2
			s2-0.897,2-2S29.103,34,28,34z"/>
	</g>
	<g>
		<circle fill="#FFFFFF" cx="37" cy="36" r="2"/>
		<path d="M37,39c-1.654,0-3-1.346-3-3s1.346-3,3-3s3,1.346,3,3S38.654,39,37,39z M37,35c-0.552,0-1,0.448-1,1s0.448,1,1,1
			s1-0.448,1-1S37.552,35,37,35z"/>
	</g>
	<g>
		<circle fill="#ED1C24" cx="39" cy="23" r="2"/>
		<path d="M39,26c-1.654,0-3-1.346-3-3s1.346-3,3-3s3,1.346,3,3S40.654,26,39,26z M39,22c-0.552,0-1,0.448-1,1s0.448,1,1,1
			s1-0.448,1-1S39.552,22,39,22z"/>
	</g>
	<rect x="28" y="42" width="8" height="2"/>
	<g>
		<rect x="17" y="34" fill="#CCCCCC" width="4" height="8"/>
		<path d="M21,43h-4c-0.553,0-1-0.447-1-1v-8c0-0.553,0.447-1,1-1h4c0.553,0,1,0.447,1,1v8C22,42.553,21.553,43,21,43z M18,41h2v-6
			h-2V41z"/>
	</g>
	<g>
		<rect x="43" y="34" fill="#CCCCCC" width="4" height="8"/>
		<path d="M47,43h-4c-0.553,0-1-0.447-1-1v-8c0-0.553,0.447-1,1-1h4c0.553,0,1,0.447,1,1v8C48,42.553,47.553,43,47,43z M44,41h2v-6
			h-2V41z"/>
	</g>
	<rect x="38" y="25" width="2" height="4"/>
	<g>
		<path fill="#CCCCCC" d="M13,7v12c0,1.105,0.895,2,2,2h9l4,4v-4h3c1.105,0,2-0.895,2-2V7c0-1.105-0.895-2-2-2H15
			C13.895,5,13,5.895,13,7z"/>
		<path d="M28,26c-0.26,0-0.516-0.102-0.707-0.293L23.586,22H15c-1.654,0-3-1.346-3-3V7c0-1.654,1.346-3,3-3h16c1.654,0,3,1.346,3,3
			v12c0,1.654-1.346,3-3,3h-2v3c0,0.404-0.243,0.77-0.617,0.924C28.259,25.976,28.129,26,28,26z M15,6c-0.552,0-1,0.448-1,1v12
			c0,0.552,0.448,1,1,1h9c0.266,0,0.52,0.105,0.707,0.293L27,22.586V21c0-0.553,0.447-1,1-1h3c0.552,0,1-0.448,1-1V7
			c0-0.552-0.448-1-1-1H15z"/>
	</g>
	<rect x="16" y="8" width="14" height="2"/>
	<rect x="16" y="12" width="4" height="2"/>
	<rect x="16" y="16" width="14" height="2"/>
	<rect x="22" y="12" width="2" height="2"/>
	<rect x="26" y="12" width="4" height="2"/>
</g>
</svg>
