<?xml version="1.0" encoding="UTF-8" standalone="no"?> <svg width="64" height="64" viewBox="0 0 64 64" fill="none" xmlns="http://www.w3.org/2000/svg">
<path d="M36 3H61V41H36C35.2043 41 34.4413 40.6839 33.8787 40.1213C33.316 39.5587 33 38.7956 33 38V6C33 5.20435 33.316 4.44129 33.8787 3.87868C34.4413 3.31607 35.2043 3 36 3Z" fill="#C4F236"/>
<path d="M61 9V3H36C35.2043 3 34.4413 3.31607 33.8787 3.87868C33.316 4.44129 33 5.20435 33 6V38C33 38.7956 33.316 39.5587 33.8787 40.1213C34.4413 40.6839 35.2043 41 36 41H61V37H51C47.2869 37 43.726 35.525 41.1005 32.8995C38.475 30.274 37 26.713 37 23V9H61Z" fill="#A1D51C"/>
<path d="M36 3H61V9H36C35.2043 9 34.4413 8.68393 33.8787 8.12132C33.316 7.55871 33 6.79565 33 6V6C33 5.20435 33.316 4.44129 33.8787 3.87868C34.4413 3.31607 35.2043 3 36 3Z" fill="#D0D8DA"/>
<path d="M55 37C56.1046 37 57 36.1046 57 35C57 33.8954 56.1046 33 55 33C53.8954 33 53 33.8954 53 35C53 36.1046 53.8954 37 55 37Z" fill="#F9E109"/>
<path d="M42 17C43.1046 17 44 16.1046 44 15C44 13.8954 43.1046 13 42 13C40.8954 13 40 13.8954 40 15C40 16.1046 40.8954 17 42 17Z" fill="#F9E109"/>
<path d="M54 20C55.1046 20 56 19.1046 56 18C56 16.8954 55.1046 16 54 16C52.8954 16 52 16.8954 52 18C52 19.1046 52.8954 20 54 20Z" fill="#F9E109"/>
<path d="M47 32C48.1046 32 49 31.1046 49 30C49 28.8954 48.1046 28 47 28C45.8954 28 45 28.8954 45 30C45 31.1046 45.8954 32 47 32Z" fill="#F9E109"/>
<path d="M36 5H61V7H36C35.7348 7 35.4804 6.89464 35.2929 6.70711C35.1054 6.51957 35 6.26522 35 6C35 5.73478 35.1054 5.48043 35.2929 5.29289C35.4804 5.10536 35.7348 5 36 5V5Z" fill="#93999A"/>
<path d="M30 49V54C30 54.7956 30.316 55.5587 30.8786 56.1213C31.4413 56.6839 32.2043 57 33 57C33.2857 56.9999 33.5632 57.0954 33.7884 57.2711C34.0136 57.4469 34.1736 57.6929 34.243 57.97L34.681 59.724C34.772 60.0885 34.9823 60.412 35.2783 60.6433C35.5744 60.8745 35.9393 61 36.315 61C36.5363 61.0001 36.7555 60.9566 36.9599 60.872C37.1644 60.7874 37.3502 60.6633 37.5067 60.5068C37.6632 60.3503 37.7873 60.1645 37.872 59.96C37.9566 59.7555 38.0001 59.5363 38 59.315V49H30Z" fill="#E59730"/>
<path d="M44 39C43.999 37.757 43.6119 36.545 42.8924 35.5314C42.1728 34.5179 41.1562 33.7528 39.983 33.342C39.988 33.228 40 33.116 40 33C40 31.1435 39.2625 29.363 37.9497 28.0503C36.637 26.7375 34.8565 26 33 26C32.814 26 32.631 26.014 32.449 26.028C31.461 24.4064 30.0511 23.0836 28.3698 22.201C26.6885 21.3184 24.799 20.9092 22.9031 21.017C21.0073 21.1248 19.1764 21.7456 17.606 22.8132C16.0356 23.8807 14.7847 25.3548 13.987 27.078C13.0436 26.9352 12.081 26.9885 11.1591 27.2345C10.2373 27.4806 9.37614 27.914 8.6294 28.5079C7.88266 29.1018 7.26641 29.8432 6.81915 30.686C6.3719 31.5288 6.10325 32.4547 6.02998 33.406C5.3725 33.6827 4.78194 34.097 4.29807 34.6212C3.81419 35.1453 3.44824 35.767 3.22485 36.4444C3.00146 37.1219 2.92582 37.8393 3.00302 38.5485C3.08023 39.2576 3.30848 39.942 3.67242 40.5555C4.03635 41.169 4.52752 41.6974 5.11284 42.1051C5.69816 42.5128 6.36405 42.7904 7.06566 42.9191C7.76728 43.0478 8.48833 43.0247 9.18027 42.8514C9.87221 42.678 10.519 42.3584 11.077 41.914C11.2256 42.893 11.6149 43.8198 12.2099 44.6113C12.8048 45.4029 13.587 46.0344 14.4861 46.4493C15.3852 46.8641 16.3732 47.0494 17.3616 46.9884C18.3499 46.9275 19.3077 46.6222 20.149 46.1C20.856 46.5976 21.6812 46.9009 22.5421 46.9795C23.4031 47.0581 24.2696 46.9093 25.055 46.548C25.1858 47.769 25.7629 48.8987 26.6755 49.7203C27.5881 50.5419 28.772 50.9976 30 51C30.061 51 30.118 50.984 30.178 50.982C30.379 51.5708 30.7592 52.0819 31.2652 52.4438C31.7713 52.8057 32.3778 53.0003 33 53.0003C33.6221 53.0003 34.2287 52.8057 34.7347 52.4438C35.2408 52.0819 35.6209 51.5708 35.822 50.982C35.882 50.982 35.939 51 36 51C36.6566 51 37.3068 50.8707 37.9134 50.6194C38.52 50.3681 39.0712 49.9998 39.5355 49.5355C39.9998 49.0712 40.3681 48.52 40.6194 47.9134C40.8707 47.3068 41 46.6566 41 46C40.9943 45.4379 40.8928 44.881 40.7 44.353C41.6914 43.8534 42.5248 43.0885 43.1074 42.1435C43.6901 41.1984 43.999 40.1102 44 39V39Z" fill="#F9E109"/>
<path d="M39 46C38.939 46 38.882 45.984 38.822 45.982C38.6209 46.5708 38.2408 47.0819 37.7347 47.4438C37.2287 47.8057 36.6221 48.0003 36 48.0003C35.3778 48.0003 34.7713 47.8057 34.2652 47.4438C33.7592 47.0819 33.379 46.5708 33.178 45.982C33.118 45.982 33.061 46 33 46C31.772 45.9976 30.5881 45.5419 29.6755 44.7203C28.7629 43.8987 28.1858 42.769 28.055 41.548C27.3433 41.8772 26.5627 42.0301 25.7794 41.9937C24.9961 41.9573 24.2331 41.7327 23.555 41.339C21.6483 42.0674 19.5641 42.194 17.5833 41.7017C15.6024 41.2094 13.82 40.1219 12.4762 38.5856C11.1323 37.0493 10.2916 35.1381 10.0671 33.1094C9.8427 31.0806 10.2454 29.0319 11.221 27.239C9.8259 27.6074 8.57876 28.398 7.65026 29.5025C6.72175 30.6069 6.15723 31.9714 6.03398 33.409C5.3765 33.6857 4.78594 34.1 4.30207 34.6242C3.81819 35.1483 3.45224 35.77 3.22885 36.4474C3.00546 37.1249 2.92982 37.8423 3.00702 38.5515C3.08422 39.2606 3.31248 39.945 3.67641 40.5585C4.04035 41.172 4.53151 41.7004 5.11683 42.1081C5.70216 42.5158 6.36805 42.7934 7.06966 42.9221C7.77128 43.0508 8.49233 43.0277 9.18427 42.8544C9.8762 42.681 10.523 42.3614 11.081 41.917C11.2303 42.8951 11.6199 43.821 12.2148 44.6116C12.8097 45.4023 13.5914 46.0331 14.4899 46.4475C15.3884 46.862 16.3756 47.0472 17.3632 46.9865C18.3508 46.9259 19.308 46.6213 20.149 46.1C20.8559 46.5976 21.6812 46.9009 22.5421 46.9795C23.4031 47.0581 24.2696 46.9093 25.055 46.548C25.1858 47.769 25.7629 48.8987 26.6755 49.7203C27.5881 50.5419 28.772 50.9976 30 51C30.061 51 30.118 50.984 30.178 50.982C30.379 51.5708 30.7592 52.0819 31.2652 52.4438C31.7713 52.8057 32.3778 53.0003 33 53.0003C33.6221 53.0003 34.2287 52.8057 34.7347 52.4438C35.2408 52.0819 35.6209 51.5708 35.822 50.982C35.882 50.982 35.939 51 36 51C36.6566 51 37.3068 50.8707 37.9134 50.6194C38.52 50.3681 39.0712 49.9998 39.5355 49.5355C39.9998 49.0712 40.3681 48.52 40.6194 47.9134C40.8706 47.3068 41 46.6566 41 46C41 45.863 40.974 45.733 40.961 45.6C40.3411 45.8646 39.674 46.0006 39 46V46Z" fill="#FCBC04"/>
<path d="M38 42C35.9706 42.0012 33.9744 41.4849 32.2 40.5C32.5312 41.7873 33.2811 42.928 34.3316 43.7425C35.3822 44.5569 36.6737 44.9989 38.003 44.9989C39.3323 44.9989 40.6238 44.5569 41.6743 43.7425C42.7249 42.928 43.4748 41.7873 43.806 40.5C42.0298 41.4859 40.0314 42.0022 38 42V42Z" fill="#FCBC04"/>
<path d="M20 36C20.7956 36 21.5587 36.3161 22.1213 36.8787C22.6839 37.4413 23 38.2043 23 39C23.5867 38.994 24.1674 39.1186 24.7001 39.3645C25.2328 39.6105 25.7042 39.9717 26.0802 40.4222C26.4562 40.8726 26.7274 41.401 26.8742 41.9691C27.021 42.5372 27.0397 43.1308 26.929 43.707C27.4103 43.1914 27.746 42.5573 27.9019 41.8695C28.0578 41.1817 28.0283 40.4648 27.8163 39.7921C27.6044 39.1194 27.2176 38.5151 26.6955 38.0409C26.1735 37.5666 25.5349 37.2395 24.845 37.093C24.6878 36.5868 24.3983 36.1318 24.0064 35.7751C23.6144 35.4183 23.1343 35.1727 22.6156 35.0637C22.0969 34.9547 21.5586 34.9863 21.0562 35.1551C20.5538 35.3239 20.1056 35.6239 19.758 36.024C19.84 36.018 19.917 36 20 36Z" fill="#FCBC04"/>
<path d="M18.273 26.406C17.5577 25.5893 16.663 24.9492 15.659 24.536C14.9817 25.298 14.4185 26.1543 13.987 27.078V27.078C15.6504 27.3134 17.1734 28.1402 18.277 29.407C18.8134 29.1435 19.4023 29.0044 20 29H20.021C20.711 28.0821 21.6969 27.4307 22.812 27.156C22.2287 26.5724 21.4773 26.186 20.6632 26.0512C19.8492 25.9163 19.0133 26.0397 18.273 26.404V26.406Z" fill="#FCBC04"/>
<path d="M24 27C24.7214 26.9805 25.4381 27.1215 26.0983 27.4129C26.7585 27.7043 27.3457 28.1388 27.8174 28.685C28.2891 29.2312 28.6335 29.8753 28.8258 30.5709C29.018 31.2665 29.0533 31.9961 28.929 32.707C29.6312 31.9506 30.0128 30.9515 29.9937 29.9196C29.9745 28.8877 29.5561 27.9035 28.8263 27.1737C28.0965 26.4439 27.1122 26.0255 26.0803 26.0063C25.0485 25.9872 24.0493 26.3688 23.293 27.071C23.5267 27.0306 23.7629 27.0069 24 27V27Z" fill="#FCBC04"/>
<path d="M17 44C17.2652 44 17.5196 43.8946 17.7071 43.7071C17.8946 43.5196 18 43.2652 18 43C18 42.7348 17.8946 42.4804 17.7071 42.2929C17.5196 42.1054 17.2652 42 17 42C16.7348 42 16.4804 41.8946 16.2929 41.7071C16.1054 41.5196 16 41.2652 16 41C16 40.7348 15.8946 40.4804 15.7071 40.2929C15.5196 40.1054 15.2652 40 15 40C14.7348 40 14.4804 40.1054 14.2929 40.2929C14.1054 40.4804 14 40.7348 14 41C14 41.7956 14.3161 42.5587 14.8787 43.1213C15.4413 43.6839 16.2044 44 17 44Z" fill="#323232"/>
<path d="M13 30C11.9391 30 10.9217 30.4214 10.1716 31.1716C9.42143 31.9217 9 32.9391 9 34C9 34.2652 9.10536 34.5196 9.29289 34.7071C9.48043 34.8946 9.73478 35 10 35C10.2652 35 10.5196 34.8946 10.7071 34.7071C10.8946 34.5196 11 34.2652 11 34C11 33.4696 11.2107 32.9609 11.5858 32.5858C11.9609 32.2107 12.4696 32 13 32C13.2652 32 13.5196 31.8946 13.7071 31.7071C13.8946 31.5196 14 31.2652 14 31C14 30.7348 13.8946 30.4804 13.7071 30.2929C13.5196 30.1054 13.2652 30 13 30Z" fill="#323232"/>
<path d="M8 38C8 37.7348 7.89464 37.4804 7.70711 37.2929C7.51957 37.1054 7.26522 37 7 37C6.73478 37 6.48043 37.1054 6.29289 37.2929C6.10536 37.4804 6 37.7348 6 38C6 38.5304 6.21071 39.0391 6.58579 39.4142C6.96086 39.7893 7.46957 40 8 40C8.26522 40 8.51957 39.8946 8.70711 39.7071C8.89464 39.5196 9 39.2652 9 39C9 38.7348 8.89464 38.4804 8.70711 38.2929C8.51957 38.1054 8.26522 38 8 38V38Z" fill="#323232"/>
<path d="M24.5 26C24.2348 26 23.9804 26.1054 23.7929 26.2929C23.6054 26.4804 23.5 26.7348 23.5 27C23.5 27.2652 23.6054 27.5196 23.7929 27.7071C23.9804 27.8947 24.2348 28 24.5 28C25.4283 28 26.3185 28.3688 26.9749 29.0251C27.6313 29.6815 28 30.5717 28 31.5C28 31.7652 28.1054 32.0196 28.2929 32.2071C28.4804 32.3947 28.7348 32.5 29 32.5C29.2652 32.5 29.5196 32.3947 29.7071 32.2071C29.8946 32.0196 30 31.7652 30 31.5C30.0008 30.4251 29.6842 29.3738 29.09 28.478C30.0438 27.644 31.2379 27.1345 32.5 27.023C32.508 27.0235 32.516 27.0235 32.524 27.023C32.682 27.012 32.84 26.999 33 26.999C34.5908 27.0006 36.116 27.6332 37.2409 28.7581C38.3658 29.883 38.9984 31.4082 39 32.999C39 33.2642 39.1054 33.5186 39.2929 33.7061C39.4804 33.8937 39.7348 33.999 40 33.999C40.2652 33.999 40.5196 33.8937 40.7071 33.7061C40.8946 33.5186 41 33.2642 41 32.999C40.9976 30.878 40.154 28.8446 38.6542 27.3448C37.1544 25.845 35.121 25.0014 33 24.999H54C54.2652 24.999 54.5196 24.8936 54.7071 24.7061C54.8946 24.5186 55 24.2642 55 23.999V20.816C55.6672 20.5801 56.2296 20.1159 56.5876 19.5055C56.9457 18.8951 57.0765 18.1778 56.9568 17.4803C56.8371 16.7828 56.4747 16.15 55.9337 15.6939C55.3926 15.2378 54.7077 14.9876 54 14.9876C53.2923 14.9876 52.6074 15.2378 52.0663 15.6939C51.5253 16.15 51.1629 16.7828 51.0432 17.4803C50.9235 18.1778 51.0543 18.8951 51.4124 19.5055C51.7704 20.1159 52.3328 20.5801 53 20.816V23H31.219C29.528 21.4535 27.411 20.4511 25.143 20.123C24.8803 20.0851 24.6133 20.1531 24.4007 20.312C24.1882 20.4709 24.0474 20.7078 24.0095 20.9705C23.9716 21.2332 24.0396 21.5002 24.1985 21.7128C24.3574 21.9254 24.5943 22.0661 24.857 22.104C27.1363 22.4336 29.2161 23.5861 30.704 25.344C29.5881 25.6787 28.5588 26.2531 27.688 27.027C26.7592 26.3591 25.644 25.9999 24.5 26V26ZM54 17C54.1978 17 54.3911 17.0587 54.5556 17.1685C54.72 17.2784 54.8482 17.4346 54.9239 17.6173C54.9996 17.8 55.0194 18.0011 54.9808 18.1951C54.9422 18.3891 54.847 18.5673 54.7071 18.7071C54.5673 18.847 54.3891 18.9422 54.1951 18.9808C54.0011 19.0194 53.8 18.9996 53.6173 18.9239C53.4346 18.8482 53.2784 18.72 53.1685 18.5556C53.0586 18.3911 53 18.1978 53 18C53 17.7348 53.1054 17.4804 53.2929 17.2929C53.4804 17.1054 53.7348 17 54 17Z" fill="#323232"/>
<path d="M20.172 32.172C20.0765 32.2643 20.0003 32.3746 19.9479 32.4966C19.8955 32.6186 19.8679 32.7498 19.8667 32.8826C19.8656 33.0154 19.8909 33.1471 19.9412 33.27C19.9914 33.3929 20.0657 33.5045 20.1596 33.5984C20.2535 33.6923 20.3651 33.7665 20.488 33.8168C20.6109 33.8671 20.7426 33.8924 20.8754 33.8913C21.0082 33.8901 21.1394 33.8625 21.2614 33.8101C21.3834 33.7577 21.4937 33.6815 21.586 33.586C21.9668 33.2222 22.4733 33.0191 23 33.0191C23.5267 33.0191 24.0331 33.2222 24.414 33.586C24.5062 33.6815 24.6166 33.7577 24.7386 33.8101C24.8606 33.8625 24.9918 33.8901 25.1246 33.8913C25.2574 33.8924 25.389 33.8671 25.5119 33.8168C25.6348 33.7665 25.7465 33.6923 25.8404 33.5984C25.9343 33.5045 26.0085 33.3929 26.0588 33.27C26.1091 33.1471 26.1344 33.0154 26.1332 32.8826C26.1321 32.7498 26.1045 32.6186 26.0521 32.4966C25.9997 32.3746 25.9235 32.2643 25.828 32.172C25.0664 31.4441 24.0535 31.0379 23 31.0379C21.9465 31.0379 20.9336 31.4441 20.172 32.172V32.172Z" fill="#323232"/>
<path d="M38 42C38.2652 42 38.5196 41.8946 38.7071 41.7071C38.8946 41.5196 39 41.2652 39 41C39 40.7348 38.8946 40.4804 38.7071 40.2929C38.5196 40.1054 38.2652 40 38 40C37.7348 40 37.4804 39.8946 37.2929 39.7071C37.1054 39.5196 37 39.2652 37 39C37 38.7348 36.8946 38.4804 36.7071 38.2929C36.5196 38.1054 36.2652 38 36 38C35.7348 38 35.4804 38.1054 35.2929 38.2929C35.1054 38.4804 35 38.7348 35 39C35 39.7956 35.3161 40.5587 35.8787 41.1213C36.4413 41.6839 37.2044 42 38 42Z" fill="#323232"/>
<path d="M32 33C31.7348 33 31.4804 33.1054 31.2929 33.2929C31.1054 33.4804 31 33.7348 31 34C31 34.5304 30.7893 35.0391 30.4142 35.4142C30.0391 35.7893 29.5304 36 29 36C28.7348 36 28.4804 36.1054 28.2929 36.2929C28.1054 36.4804 28 36.7348 28 37C28 37.2652 28.1054 37.5196 28.2929 37.7071C28.4804 37.8946 28.7348 38 29 38C30.0609 38 31.0783 37.5786 31.8284 36.8284C32.5786 36.0783 33 35.0609 33 34C33 33.7348 32.8946 33.4804 32.7071 33.2929C32.5196 33.1054 32.2652 33 32 33Z" fill="#323232"/>
<path d="M35 33C35 33.2652 35.1054 33.5196 35.2929 33.7071C35.4804 33.8946 35.7348 34 36 34C36.2652 34 36.5196 33.8946 36.7071 33.7071C36.8946 33.5196 37 33.2652 37 33C37 31.9391 36.5786 30.9217 35.8284 30.1716C35.0783 29.4214 34.0609 29 33 29C32.7348 29 32.4804 29.1054 32.2929 29.2929C32.1054 29.4804 32 29.7348 32 30C32 30.2652 32.1054 30.5196 32.2929 30.7071C32.4804 30.8946 32.7348 31 33 31C33.5304 31 34.0391 31.2107 34.4142 31.5858C34.7893 31.9609 35 32.4696 35 33Z" fill="#323232"/>
<path d="M29 46C29 46.7956 29.3161 47.5587 29.8787 48.1213C30.4413 48.6839 31.2044 49 32 49C32.2652 49 32.5196 48.8946 32.7071 48.7071C32.8946 48.5196 33 48.2652 33 48C33 47.7348 32.8946 47.4804 32.7071 47.2929C32.5196 47.1054 32.2652 47 32 47C31.7348 47 31.4804 46.8946 31.2929 46.7071C31.1054 46.5196 31 46.2652 31 46C31 45.7348 30.8946 45.4804 30.7071 45.2929C30.5196 45.1054 30.2652 45 30 45C29.7348 45 29.4804 45.1054 29.2929 45.2929C29.1054 45.4804 29 45.7348 29 46Z" fill="#323232"/>
<path d="M23 44C23.5523 44 24 43.5523 24 43C24 42.4477 23.5523 42 23 42C22.4477 42 22 42.4477 22 43C22 43.5523 22.4477 44 23 44Z" fill="#323232"/>
<path d="M31 41C31.5523 41 32 40.5523 32 40C32 39.4477 31.5523 39 31 39C30.4477 39 30 39.4477 30 40C30 40.5523 30.4477 41 31 41Z" fill="#323232"/>
<path d="M15 38C15.5523 38 16 37.5523 16 37C16 36.4477 15.5523 36 15 36C14.4477 36 14 36.4477 14 37C14 37.5523 14.4477 38 15 38Z" fill="#323232"/>
<path d="M61 27C60.7348 27 60.4804 27.1054 60.2929 27.2929C60.1053 27.4804 60 27.7348 60 28V40H56V37.816C56.6672 37.5801 57.2295 37.1159 57.5876 36.5055C57.9457 35.8951 58.0765 35.1778 57.9568 34.4803C57.8371 33.7828 57.4747 33.15 56.9337 32.6939C56.3926 32.2378 55.7077 31.9876 55 31.9876C54.2923 31.9876 53.6074 32.2378 53.0663 32.6939C52.5253 33.15 52.1629 33.7828 52.0432 34.4803C51.9235 35.1778 52.0543 35.8951 52.4124 36.5055C52.7704 37.1159 53.3328 37.5801 54 37.816V40H47.643C47.3778 40 47.1234 40.1054 46.9359 40.2929C46.7484 40.4804 46.643 40.7348 46.643 41C46.643 41.2652 46.7484 41.5196 46.9359 41.7071C47.1234 41.8947 47.3778 42 47.643 42H54V44H42.872C43.6386 43.2538 44.2245 42.3422 44.585 41.335C44.6738 41.085 44.6598 40.81 44.5458 40.5704C44.4894 40.4518 44.4102 40.3455 44.3127 40.2575C44.2152 40.1694 44.1013 40.1015 43.9775 40.0575C43.7275 39.9687 43.4525 39.9828 43.2129 40.0967C42.9733 40.2106 42.7888 40.415 42.7 40.665C42.2756 41.88 41.3972 42.8835 40.249 43.465C40.241 43.465 40.236 43.477 40.228 43.481C39.5393 43.8219 38.7814 43.9995 38.013 44H38H37.992C36.6685 43.9971 35.4002 43.4695 34.465 42.533C34.2764 42.3509 34.0238 42.2501 33.7616 42.2523C33.4994 42.2546 33.2486 42.3598 33.0632 42.5452C32.8778 42.7306 32.7726 42.9814 32.7703 43.2436C32.768 43.5058 32.8688 43.7584 33.051 43.947C33.7002 44.598 34.4716 45.1145 35.3209 45.4668C36.1701 45.8191 37.0806 46.0003 38 46C38.023 46 38.045 46 38.068 46H40C40.0001 47.053 39.585 48.0635 38.8447 48.8123C38.1045 49.5611 37.0989 49.9879 36.046 50C36.011 50 35.891 49.983 35.854 49.982C35.64 49.9692 35.4278 50.0282 35.251 50.1495C35.0743 50.2709 34.943 50.4477 34.878 50.652C34.7449 51.0445 34.4922 51.3855 34.1553 51.627C33.8185 51.8684 33.4145 51.9983 33 51.9983C32.5855 51.9983 32.1815 51.8684 31.8446 51.627C31.5078 51.3855 31.2551 51.0445 31.122 50.652C31.0576 50.4473 30.9265 50.2701 30.7496 50.1487C30.5727 50.0272 30.3602 49.9685 30.146 49.982C30.0968 49.9818 30.0477 49.9879 30 50C29.0916 49.9965 28.2119 49.6813 27.508 49.107C26.8041 48.5327 26.3187 47.7342 26.133 46.845C26.7117 46.3843 27.1798 45.7998 27.5029 45.1344C27.826 44.469 27.9958 43.7397 28 43C27.9976 41.8445 27.5958 40.7254 26.8626 39.8324C26.1294 38.9393 25.1099 38.3273 23.977 38.1C23.8776 37.2472 23.4686 36.4605 22.8278 35.8891C22.1869 35.3177 21.3586 35.0013 20.5 35C20.2348 35 19.9804 35.1054 19.7929 35.2929C19.6053 35.4804 19.5 35.7348 19.5 36C19.5 36.2652 19.6053 36.5196 19.7929 36.7071C19.9804 36.8947 20.2348 37 20.5 37C20.8978 37 21.2793 37.158 21.5607 37.4393C21.842 37.7207 22 38.1022 22 38.5V39C22 39.2652 22.1053 39.5196 22.2929 39.7071C22.4804 39.8947 22.7348 40 23 40C23.7435 39.9992 24.4609 40.2746 25.0129 40.7727C25.5649 41.2709 25.9123 41.9563 25.9877 42.696C26.063 43.4357 25.861 44.177 25.4207 44.7762C24.9805 45.3755 24.3334 45.7898 23.605 45.939C23.597 45.939 23.591 45.946 23.583 45.948C22.5786 46.1013 21.5537 45.8621 20.721 45.28C20.5607 45.168 20.371 45.1054 20.1755 45.1001C19.98 45.0948 19.7872 45.1469 19.621 45.25C18.92 45.6851 18.1221 45.9395 17.2986 45.9903C16.4752 46.0412 15.652 45.8869 14.9028 45.5413C14.1537 45.1957 13.502 44.6696 13.0062 44.0102C12.5104 43.3508 12.186 42.5787 12.062 41.763C12.0355 41.5903 11.9641 41.4275 11.8551 41.2909C11.7461 41.1543 11.6031 41.0487 11.4406 40.9845C11.278 40.9204 11.1014 40.9 10.9285 40.9253C10.7556 40.9507 10.5923 41.0209 10.455 41.129C9.75861 41.6884 8.89324 41.9955 7.99999 42C7.07947 41.999 6.18747 41.6805 5.47445 41.0983C4.76144 40.5161 4.27104 39.7058 4.086 38.8041C3.90095 37.9024 4.03258 36.9644 4.45868 36.1485C4.88478 35.3325 5.57927 34.6885 6.42499 34.325C6.59124 34.2532 6.73486 34.1376 6.84053 33.9905C6.9462 33.8435 7.00996 33.6705 7.02499 33.49C7.15934 31.9956 7.84605 30.6049 8.95094 29.5897C10.0558 28.5745 11.4995 28.0077 13 28C13.2842 28.0027 13.5679 28.0251 13.849 28.067C13.859 28.067 13.87 28.067 13.881 28.067C14.9068 28.2198 15.8745 28.6395 16.687 29.284C16.1587 29.7486 15.7351 30.3202 15.4443 30.9608C15.1535 31.6014 15.002 32.2965 15 33C15 33.2652 15.1053 33.5196 15.2929 33.7071C15.4804 33.8947 15.7348 34 16 34C16.2652 34 16.5196 33.8947 16.7071 33.7071C16.8946 33.5196 17 33.2652 17 33C17 32.2044 17.3161 31.4413 17.8787 30.8787C18.4413 30.3161 19.2043 30 20 30C20.2652 30 20.5196 29.8947 20.7071 29.7071C20.8946 29.5196 21 29.2652 21 29C21 28.7348 20.8946 28.4804 20.7071 28.2929C20.5196 28.1054 20.2652 28 20 28C19.5039 28.0072 19.0117 28.0892 18.54 28.243C17.6782 27.4095 16.6389 26.7818 15.5 26.407C16.0721 25.5109 16.7881 24.7153 17.619 24.052C17.8268 23.887 17.9605 23.6463 17.9908 23.3827C18.0211 23.1191 17.9455 22.8543 17.7805 22.6465C17.6155 22.4387 17.3748 22.305 17.1112 22.2747C16.8476 22.2444 16.5828 22.32 16.375 22.485C15.1586 23.4515 14.1472 24.6509 13.4 26.013C13.266 26 13.132 26 13 26C11.0983 26.0098 9.26144 26.6928 7.81531 27.9278C6.36917 29.1629 5.4072 30.8702 5.09999 32.747C3.93491 33.3901 3.01666 34.4022 2.48972 35.6242C1.96278 36.8462 1.85704 38.2087 2.18914 39.4973C2.52124 40.786 3.27233 41.9277 4.32425 42.7428C5.37617 43.5579 6.66923 44.0002 7.99999 44C8.84582 44.0007 9.68174 43.8179 10.45 43.464C10.7933 44.3819 11.3259 45.2174 12.0132 45.916C12.7005 46.6147 13.527 47.1609 14.4392 47.5193C15.3514 47.8777 16.3287 48.0402 17.3078 47.9962C18.2868 47.9522 19.2456 47.7027 20.122 47.264C21.4006 47.9664 22.8922 48.1763 24.315 47.854C24.6515 48.8922 25.2661 49.8183 26.0921 50.5317C26.9181 51.245 27.9239 51.7183 29 51.9V54C29 55.0609 29.4214 56.0783 30.1716 56.8284C30.9217 57.5786 31.9391 58 33 58C33.0625 57.9999 33.1232 58.0207 33.1725 58.0592C33.2218 58.0976 33.2568 58.1514 33.272 58.212L33.711 59.966C33.8706 60.601 34.2567 61.1557 34.7966 61.5259C35.3366 61.8962 35.9932 62.0564 36.643 61.9764C37.2928 61.8964 37.891 61.5818 38.325 61.0916C38.7591 60.6015 38.9991 59.9697 39 59.315V54.578C39 54.3128 38.8946 54.0584 38.7071 53.8709C38.5196 53.6834 38.2652 53.578 38 53.578C37.7348 53.578 37.4804 53.6834 37.2929 53.8709C37.1053 54.0584 37 54.3128 37 54.578V59.315C37.0004 59.4825 36.9394 59.6443 36.8286 59.7699C36.7178 59.8955 36.5648 59.9761 36.3986 59.9966C36.2324 60.017 36.0644 59.9758 35.9265 59.8808C35.7885 59.7858 35.6902 59.6436 35.65 59.481L35.212 57.727C35.0891 57.2335 34.8046 56.7952 34.4037 56.4822C34.0028 56.1692 33.5086 55.9995 33 56C32.4696 56 31.9609 55.7893 31.5858 55.4142C31.2107 55.0391 31 54.5304 31 54V53.457C31.4545 53.7228 31.9573 53.8955 32.4791 53.9651C33.001 54.0348 33.5314 54 34.0397 53.8627C34.548 53.7254 35.0239 53.4885 35.4397 53.1656C35.8556 52.8427 36.2031 52.4404 36.462 51.982C37.9682 51.864 39.3747 51.1829 40.401 50.0742C41.4274 48.9655 41.9983 47.5108 42 46H55C55.2652 46 55.5196 45.8947 55.7071 45.7071C55.8946 45.5196 56 45.2652 56 45V42H61C61.2652 42 61.5196 41.8947 61.7071 41.7071C61.8946 41.5196 62 41.2652 62 41V28C62 27.7348 61.8946 27.4804 61.7071 27.2929C61.5196 27.1054 61.2652 27 61 27ZM55 34C55.1978 34 55.3911 34.0587 55.5556 34.1685C55.72 34.2784 55.8482 34.4346 55.9239 34.6173C55.9996 34.8001 56.0194 35.0011 55.9808 35.1951C55.9422 35.3891 55.847 35.5673 55.7071 35.7071C55.5672 35.847 55.3891 35.9422 55.1951 35.9808C55.0011 36.0194 54.8 35.9996 54.6173 35.9239C54.4346 35.8482 54.2784 35.72 54.1685 35.5556C54.0586 35.3911 54 35.1978 54 35C54 34.7348 54.1053 34.4804 54.2929 34.2929C54.4804 34.1054 54.7348 34 55 34Z" fill="#323232"/>
<path d="M61 2H36C34.9391 2 33.9217 2.42143 33.1716 3.17157C32.4214 3.92172 32 4.93913 32 6V14H21C20.7348 14 20.4804 14.1054 20.2929 14.2929C20.1054 14.4804 20 14.7348 20 15V25C20 25.2652 20.1054 25.5196 20.2929 25.7071C20.4804 25.8946 20.7348 26 21 26C21.2652 26 21.5196 25.8946 21.7071 25.7071C21.8946 25.5196 22 25.2652 22 25V16H32V20C32 20.2652 32.1054 20.5196 32.2929 20.7071C32.4804 20.8946 32.7348 21 33 21C33.2652 21 33.5196 20.8946 33.7071 20.7071C33.8946 20.5196 34 20.2652 34 20V16H39.184C39.4199 16.6672 39.8841 17.2296 40.4945 17.5876C41.1049 17.9457 41.8222 18.0765 42.5197 17.9568C43.2172 17.8371 43.85 17.4747 44.3061 16.9337C44.7622 16.3926 45.0124 15.7077 45.0124 15C45.0124 14.2923 44.7622 13.6074 44.3061 13.0663C43.85 12.5253 43.2172 12.1629 42.5197 12.0432C41.8222 11.9235 41.1049 12.0543 40.4945 12.4124C39.8841 12.7704 39.4199 13.3328 39.184 14H34V9.444C34.6053 9.80392 35.2957 9.99586 36 10H60V24C60 24.2652 60.1054 24.5196 60.2929 24.7071C60.4804 24.8946 60.7348 25 61 25C61.2652 25 61.5196 24.8946 61.7071 24.7071C61.8946 24.5196 62 24.2652 62 24V3C62 2.73478 61.8946 2.48043 61.7071 2.29289C61.5196 2.10536 61.2652 2 61 2V2ZM42 14C42.1978 14 42.3911 14.0586 42.5556 14.1685C42.72 14.2784 42.8482 14.4346 42.9239 14.6173C42.9996 14.8 43.0194 15.0011 42.9808 15.1951C42.9422 15.3891 42.847 15.5673 42.7071 15.7071C42.5673 15.847 42.3891 15.9422 42.1951 15.9808C42.0011 16.0194 41.8 15.9996 41.6173 15.9239C41.4346 15.8482 41.2784 15.72 41.1685 15.5556C41.0586 15.3911 41 15.1978 41 15C41 14.7348 41.1054 14.4804 41.2929 14.2929C41.4804 14.1054 41.7348 14 42 14ZM34 6C34 5.46957 34.2107 4.96086 34.5858 4.58579C34.9609 4.21071 35.4696 4 36 4H60V8H36C35.4696 8 34.9609 7.78929 34.5858 7.41421C34.2107 7.03914 34 6.53043 34 6Z" fill="#323232"/>
<path d="M47 38C47.2652 38 47.5196 37.8946 47.7071 37.7071C47.8946 37.5196 48 37.2652 48 37V32.816C48.6672 32.5801 49.2296 32.1159 49.5876 31.5055C49.9457 30.8951 50.0765 30.1778 49.9568 29.4803C49.8371 28.7828 49.4747 28.15 48.9337 27.6939C48.3926 27.2378 47.7077 26.9876 47 26.9876C46.2923 26.9876 45.6074 27.2378 45.0663 27.6939C44.5253 28.15 44.1629 28.7828 44.0432 29.4803C43.9235 30.1778 44.0543 30.8951 44.4124 31.5055C44.7704 32.1159 45.3328 32.5801 46 32.816V36H39C38.7348 36 38.4804 36.1054 38.2929 36.2929C38.1054 36.4804 38 36.7348 38 37C38 37.2652 38.1054 37.5196 38.2929 37.7071C38.4804 37.8946 38.7348 38 39 38H47ZM47 29C47.1978 29 47.3911 29.0587 47.5556 29.1685C47.72 29.2784 47.8482 29.4346 47.9239 29.6173C47.9996 29.8 48.0194 30.0011 47.9808 30.1951C47.9422 30.3891 47.847 30.5673 47.7071 30.7071C47.5673 30.847 47.3891 30.9422 47.1951 30.9808C47.0011 31.0194 46.8 30.9996 46.6173 30.9239C46.4346 30.8482 46.2784 30.72 46.1685 30.5556C46.0586 30.3911 46 30.1978 46 30C46 29.7348 46.1054 29.4804 46.2929 29.2929C46.4804 29.1054 46.7348 29 47 29Z" fill="#323232"/>
</svg>
